<svg xmlns="http://www.w3.org/2000/svg" viewBox="0 0 1010.15 635.26"><defs><style>.cls-1{fill:#a0616a;}.cls-2{fill:#575a89;}.cls-3{opacity:0.1;isolation:isolate;}.cls-4{fill:#3f3d56;}.cls-5{fill:#2f2e41;}.cls-6{fill:#d0cde1;}.cls-7{fill:#b14aed;}</style></defs><g id="Layer_2" data-name="Layer 2"><g id="Layer_1-2" data-name="Layer 1"><path class="cls-1" d="M378,265.87s82.82,4,87.81,32.93-96.79,3-96.79,3Z"/><path class="cls-2" d="M247.27,174.06s14,4,24.94,27.95,32.93,45.9,32.93,45.9l88.82,17-15,44.91-84.82-11-52.89-29.94Z"/><path class="cls-3" d="M247.27,174.06s14,4,24.94,27.95,32.93,45.9,32.93,45.9l88.82,17-15,44.91-84.82-11-52.89-29.94Z"/><rect class="cls-4" x="822.55" y="92.74" width="104.78" height="2"/><rect class="cls-4" x="408.43" y="92.74" width="332.29" height="2"/><polygon class="cls-1" points="115.55 128.16 124.53 185.04 186.4 188.03 179.41 104.21 115.55 128.16"/><path class="cls-5" d="M50.19,507.86l-3,125.73H141l14-49.9,11,49.9h97.79s2-143.7-9-144.69S50.19,507.86,50.19,507.86Z"/><circle class="cls-1" cx="135.51" cy="89.24" r="53.89"/><path class="cls-2" d="M44.7,513.34l27.94-137.7L35.72,193l85-31.9,41.7-5,21-3.91,15,3.91s59.87,15,62.87,26-12,100.78-12,100.78l-14,73.85,30.94,132.71s-128.73,43.91-219.54,24Z"/><polygon class="cls-3" points="82.12 243.42 82.12 280.34 199.86 280.5 88.11 268.36 82.12 243.42"/><polygon class="cls-3" points="72.01 345.39 219.83 324.25 72.01 366.11 72.01 345.39"/><polygon class="cls-3" points="306.64 248.41 290.79 305.51 317.62 250.29 306.64 248.41"/><path class="cls-5" d="M179.85,35.2l9.91-4S169,8.43,140.22,10.41l8.1-8.93s-19.81-7.93-37.83,12.9C101,25.32,90.06,38.19,83.23,52.69H72.62l4.43,9.75L61.54,72.19l15.92-1.75A54.53,54.53,0,0,0,77,86.62a21,21,0,0,0,7.67,13.69h0S97,74.87,97,70.91v9.91s9.91-8.92,9.91-14.87l5.4,6.94L115,62l33.33,10.91L142.92,64l20.72,3L155.53,56S179,68.92,179.85,79.83s7.76,21.25,7.76,21.25S206,50.08,179.85,35.2Z"/><rect class="cls-6" x="232.8" y="234.44" width="383.19" height="400.15"/><rect class="cls-7" x="272.71" y="322.25" width="283.4" height="39.92"/><rect class="cls-7" x="321.43" y="428.02" width="185.6" height="19.96"/><rect class="cls-7" x="321.79" y="462.95" width="185.6" height="19.96"/><rect class="cls-7" x="322.15" y="497.88" width="92.8" height="19.96"/><rect class="cls-7" x="518.19" y="598.66" width="42.91" height="19.96"/><path class="cls-1" d="M205.36,284.83s86.81-13,99.78,6-91.8,28.93-91.8,28.93Z"/><path class="cls-2" d="M45.7,192H39.44a10.15,10.15,0,0,0-6.94,2.7C26.57,200.24,14,214.46,8.77,239.92c-7,33.93-19,99.79,8,104.78s203.56-19,203.56-19l-13-45.9-127.73,1s2-22-2-35.93S45.7,192,45.7,192Z"/><circle class="cls-6" cx="408.43" cy="93.74" r="40.91"/><circle class="cls-4" cx="595.03" cy="93.74" r="40.91"/><path class="cls-4" d="M781.63,135.65a41.92,41.92,0,1,1,41.91-41.91A41.92,41.92,0,0,1,781.63,135.65Zm0-81.83a39.92,39.92,0,1,0,39.92,39.92,39.91,39.91,0,0,0-39.92-39.92Z"/><path class="cls-4" d="M968.24,135.65a41.92,41.92,0,1,1,41.91-41.91A41.92,41.92,0,0,1,968.24,135.65Zm0-81.83a39.92,39.92,0,1,0,39.91,39.92,39.92,39.92,0,0,0-39.91-39.92Z"/><polygon class="cls-4" points="402.79 111.14 385.06 87.5 391.44 82.71 403.65 98.99 459.77 42.87 465.41 48.51 402.79 111.14"/><rect class="cls-4" x="16.46" y="632.49" width="814.86" height="2.78"/></g></g></svg>