<svg xmlns="http://www.w3.org/2000/svg" xmlns:xlink="http://www.w3.org/1999/xlink" viewBox="0 0 1142.05 959.79"><defs><style>.cls-1{fill:none;}.cls-2{fill:url(#linear-gradient);}.cls-3{fill:#fff;}.cls-4{fill:#b14aed;}.cls-5{clip-path:url(#clip-path);}.cls-6{fill:url(#linear-gradient-2);}.cls-7{opacity:0.1;isolation:isolate;}.cls-8{fill:#ff5252;}</style><linearGradient id="linear-gradient" x1="412.5" y1="280" x2="412.5" y2="954.34" gradientTransform="matrix(1, 0, 0, -1, 122.95, 1059.24)" gradientUnits="userSpaceOnUse"><stop offset="0" stop-color="gray" stop-opacity="0.25"/><stop offset="0.54" stop-color="gray" stop-opacity="0.12"/><stop offset="1" stop-color="gray" stop-opacity="0.1"/></linearGradient><clipPath id="clip-path" transform="translate(122.95 104.91)"><polygon class="cls-1" points="701.79 621.73 537.2 621.73 286.14 645.99 33.14 621.73 33.14 27.13 285.1 45.33 542.49 27.13 794.29 61.51 794.29 528.69 701.79 621.73"/></clipPath><linearGradient id="linear-gradient-2" x1="750.24" y1="316.43" x2="750.24" y2="439.17" gradientTransform="matrix(1, 0, 0, -1, 122.95, 1059.24)" gradientUnits="userSpaceOnUse"><stop offset="0" stop-opacity="0.12"/><stop offset="0.55" stop-opacity="0.09"/><stop offset="1" stop-opacity="0.02"/></linearGradient></defs><g id="Layer_2" data-name="Layer 2"><g id="Layer_3" data-name="Layer 3"><polygon class="cls-2" points="829.06 752.8 669.3 752.8 397.18 779.24 122.95 752.8 122.95 104.91 396.04 124.74 675.03 104.91 947.95 142.37 940.95 639.91 829.06 752.8"/><polygon class="cls-3" points="823.86 743.79 667.59 743.79 401.42 769.52 133.19 743.79 133.19 113.41 400.31 132.71 673.19 113.41 940.14 149.86 933.29 633.96 823.86 743.79"/><polygon class="cls-4" points="824.74 726.63 660.15 726.63 409.1 750.9 156.09 726.63 156.09 132.03 408.05 150.24 665.44 132.03 917.24 166.42 917.24 633.6 824.74 726.63"/><g class="cls-5"><polygon class="cls-3" points="1142.05 905.14 564.09 585.08 710.89 97.33 660.93 77.52 589.79 313.89 22.97 0 0 54.65 572.41 371.63 441.73 805.83 491.69 825.64 546.71 642.82 1119.08 959.79 1142.05 905.14"/></g><polygon class="cls-6" points="813.08 742.81 815.02 620.08 933.29 624.85 813.08 742.81"/><polygon class="cls-3" points="156.09 388.99 518.84 549.61 542.95 599.58 518.95 624.58 156.09 452.49 156.09 388.99"/><polygon class="cls-3" points="823.86 742.81 825.62 629.55 933.29 633.96 823.86 742.81"/><polygon class="cls-3" points="648.95 647.58 800.31 150.45 860.52 158.67 690.95 673.58 648.95 647.58"/><polyline class="cls-7" points="408.05 750.9 660 726.63 660 132.03 408.05 150.24"/><path class="cls-8" d="M515.85,243.53c0,48-87,184-87,184s-87-136-87-184a87,87,0,0,1,173.93,0Z" transform="translate(122.95 104.91)"/><circle class="cls-3" cx="551.83" cy="342.37" r="26.29"/><polygon class="cls-3" points="784.67 388.99 917.24 423.01 917.24 486.5 754.95 428.58 784.67 388.99"/><polygon class="cls-3" points="279.43 510.98 245.95 742.58 283.95 750.58 334.01 536.87 333.95 506.58 279.43 510.98"/><polygon class="cls-3" points="278.08 208.64 240.51 426.37 269.6 442.08 338.95 208.58 278.08 208.64"/><circle class="cls-8" cx="349.95" cy="165.58" r="8"/><circle class="cls-8" cx="131" cy="474.67" r="8" transform="translate(-235.57 632.85) rotate(-80.78)"/><circle class="cls-8" cx="245.95" cy="638.58" r="8"/><circle class="cls-8" cx="330.95" cy="624.58" r="8"/><circle class="cls-8" cx="193.95" cy="384.58" r="8"/><circle class="cls-8" cx="823.95" cy="376.58" r="8"/><circle class="cls-8" cx="754.95" cy="654.58" r="8"/></g></g></svg>